<mxfile host="app.diagrams.net" modified="2022-07-15T04:22:19.321Z" agent="5.0 (Macintosh; Intel Mac OS X 10_15_7) AppleWebKit/605.1.15 (KHTML, like Gecko) Version/15.5 Safari/605.1.15" etag="gS8S-VQQ4uvxevlqxnP3" version="20.1.1" type="github" pages="2">
  <diagram id="DHhBDNndMD488K_wDJeZ" name="Page-1">
    <mxGraphModel dx="1783" dy="1066" grid="1" gridSize="10" guides="1" tooltips="1" connect="1" arrows="1" fold="1" page="1" pageScale="1" pageWidth="1169" pageHeight="827" math="0" shadow="0">
      <root>
        <mxCell id="0" />
        <mxCell id="1" parent="0" />
        <mxCell id="igYRV-99Wu8rnGeavUY3-2" value="" style="image;html=1;image=img/lib/clip_art/computers/Server_Tower_128x128.png" vertex="1" parent="1">
          <mxGeometry x="770" y="322" width="80" height="80" as="geometry" />
        </mxCell>
        <mxCell id="igYRV-99Wu8rnGeavUY3-4" value="" style="image;html=1;image=img/lib/clip_art/computers/Network_2_128x128.png" vertex="1" parent="1">
          <mxGeometry x="465" y="390" width="80" height="80" as="geometry" />
        </mxCell>
        <mxCell id="igYRV-99Wu8rnGeavUY3-7" value="" style="endArrow=classic;html=1;rounded=1;" edge="1" parent="1" source="igYRV-99Wu8rnGeavUY3-18" target="igYRV-99Wu8rnGeavUY3-15">
          <mxGeometry width="50" height="50" relative="1" as="geometry">
            <mxPoint x="240" y="285" as="sourcePoint" />
            <mxPoint x="490" y="370" as="targetPoint" />
          </mxGeometry>
        </mxCell>
        <mxCell id="igYRV-99Wu8rnGeavUY3-9" value="SSR Pages&lt;br&gt;only&lt;br&gt;set-cookie &amp;lt;-&amp;gt; cookie" style="text;html=1;align=center;verticalAlign=middle;resizable=0;points=[];autosize=1;strokeColor=none;fillColor=none;fontSize=15;" vertex="1" parent="1">
          <mxGeometry x="253" y="210" width="170" height="70" as="geometry" />
        </mxCell>
        <mxCell id="igYRV-99Wu8rnGeavUY3-11" value="" style="endArrow=classic;html=1;rounded=1;" edge="1" parent="1" source="igYRV-99Wu8rnGeavUY3-13" target="igYRV-99Wu8rnGeavUY3-4">
          <mxGeometry width="50" height="50" relative="1" as="geometry">
            <mxPoint x="240" y="431.344262295082" as="sourcePoint" />
            <mxPoint x="460" y="532.327868852459" as="targetPoint" />
          </mxGeometry>
        </mxCell>
        <mxCell id="igYRV-99Wu8rnGeavUY3-12" value="fetch data&lt;br&gt;required cookie -&amp;gt; &amp;nbsp;&lt;br&gt;except Login" style="text;html=1;align=center;verticalAlign=middle;resizable=0;points=[];autosize=1;strokeColor=none;fillColor=none;fontSize=15;" vertex="1" parent="1">
          <mxGeometry x="263" y="433" width="150" height="70" as="geometry" />
        </mxCell>
        <mxCell id="igYRV-99Wu8rnGeavUY3-13" value="call APIs&lt;br&gt;(click Login)" style="shape=umlActor;verticalLabelPosition=bottom;verticalAlign=top;html=1;outlineConnect=0;fontSize=15;" vertex="1" parent="1">
          <mxGeometry x="185" y="400" width="30" height="60" as="geometry" />
        </mxCell>
        <mxCell id="igYRV-99Wu8rnGeavUY3-15" value="" style="image;html=1;image=img/lib/clip_art/computers/Network_2_128x128.png" vertex="1" parent="1">
          <mxGeometry x="465" y="245" width="80" height="80" as="geometry" />
        </mxCell>
        <mxCell id="igYRV-99Wu8rnGeavUY3-18" value="call Pages&lt;br&gt;(click menu)" style="shape=umlActor;verticalLabelPosition=bottom;verticalAlign=top;html=1;outlineConnect=0;fontSize=15;" vertex="1" parent="1">
          <mxGeometry x="185" y="255" width="30" height="60" as="geometry" />
        </mxCell>
        <mxCell id="igYRV-99Wu8rnGeavUY3-19" value="UserContext -&amp;gt; useRequest" style="text;html=1;align=center;verticalAlign=middle;resizable=0;points=[];autosize=1;strokeColor=none;fillColor=none;fontSize=15;" vertex="1" parent="1">
          <mxGeometry x="245" y="585" width="210" height="30" as="geometry" />
        </mxCell>
        <mxCell id="igYRV-99Wu8rnGeavUY3-20" value="" style="endArrow=classic;html=1;rounded=1;fontSize=15;" edge="1" parent="1" source="igYRV-99Wu8rnGeavUY3-15" target="igYRV-99Wu8rnGeavUY3-2">
          <mxGeometry width="50" height="50" relative="1" as="geometry">
            <mxPoint x="460" y="430" as="sourcePoint" />
            <mxPoint x="510" y="380" as="targetPoint" />
          </mxGeometry>
        </mxCell>
        <mxCell id="igYRV-99Wu8rnGeavUY3-21" value="fetch in SSR" style="text;html=1;align=center;verticalAlign=middle;resizable=0;points=[];autosize=1;strokeColor=none;fillColor=none;fontSize=15;" vertex="1" parent="1">
          <mxGeometry x="630" y="275" width="110" height="30" as="geometry" />
        </mxCell>
        <mxCell id="igYRV-99Wu8rnGeavUY3-22" value="" style="endArrow=classic;html=1;rounded=1;fontSize=15;" edge="1" parent="1" source="igYRV-99Wu8rnGeavUY3-4" target="igYRV-99Wu8rnGeavUY3-2">
          <mxGeometry width="50" height="50" relative="1" as="geometry">
            <mxPoint x="555" y="306.672131147541" as="sourcePoint" />
            <mxPoint x="780" y="372.327868852459" as="targetPoint" />
          </mxGeometry>
        </mxCell>
        <mxCell id="igYRV-99Wu8rnGeavUY3-23" value="fetch in CSR&lt;br&gt;useRequest" style="text;html=1;align=center;verticalAlign=middle;resizable=0;points=[];autosize=1;strokeColor=none;fillColor=none;fontSize=15;" vertex="1" parent="1">
          <mxGeometry x="630" y="404" width="110" height="50" as="geometry" />
        </mxCell>
        <mxCell id="igYRV-99Wu8rnGeavUY3-24" value="" style="endArrow=classic;html=1;rounded=1;" edge="1" parent="1" source="igYRV-99Wu8rnGeavUY3-18" target="igYRV-99Wu8rnGeavUY3-4">
          <mxGeometry width="50" height="50" relative="1" as="geometry">
            <mxPoint x="225" y="295" as="sourcePoint" />
            <mxPoint x="475" y="295" as="targetPoint" />
          </mxGeometry>
        </mxCell>
        <mxCell id="igYRV-99Wu8rnGeavUY3-25" value="CSR Pages" style="text;html=1;align=center;verticalAlign=middle;resizable=0;points=[];autosize=1;strokeColor=none;fillColor=none;" vertex="1" parent="1">
          <mxGeometry x="337" y="325" width="90" height="30" as="geometry" />
        </mxCell>
      </root>
    </mxGraphModel>
  </diagram>
  <diagram id="5o8srOI896LQ2sjO8zE5" name="Page-2">
    <mxGraphModel dx="1238" dy="579" grid="1" gridSize="10" guides="1" tooltips="1" connect="1" arrows="1" fold="1" page="1" pageScale="1" pageWidth="1169" pageHeight="1654" math="0" shadow="0">
      <root>
        <mxCell id="0" />
        <mxCell id="1" parent="0" />
        <mxCell id="niGjmo_E2RT3U3L-TL8F-40" value="&lt;h1&gt;&lt;br&gt;&lt;/h1&gt;" style="text;html=1;strokeColor=#FF8000;fillColor=default;spacing=5;spacingTop=-20;whiteSpace=wrap;overflow=hidden;rounded=0;dashed=1;" vertex="1" parent="1">
          <mxGeometry x="320" y="90" width="290" height="310" as="geometry" />
        </mxCell>
        <mxCell id="niGjmo_E2RT3U3L-TL8F-41" value="UserContext" style="text;html=1;align=center;verticalAlign=middle;resizable=0;points=[];autosize=1;strokeColor=none;fillColor=none;" vertex="1" parent="1">
          <mxGeometry x="610" y="90" width="90" height="30" as="geometry" />
        </mxCell>
        <mxCell id="niGjmo_E2RT3U3L-TL8F-38" value="&lt;h1&gt;&lt;br&gt;&lt;/h1&gt;" style="text;html=1;strokeColor=#FF8000;fillColor=default;spacing=5;spacingTop=-20;whiteSpace=wrap;overflow=hidden;rounded=0;dashed=1;" vertex="1" parent="1">
          <mxGeometry x="320" y="430" width="290" height="237" as="geometry" />
        </mxCell>
        <mxCell id="niGjmo_E2RT3U3L-TL8F-39" value="useRequest" style="text;html=1;align=center;verticalAlign=middle;resizable=0;points=[];autosize=1;strokeColor=none;fillColor=none;" vertex="1" parent="1">
          <mxGeometry x="610" y="429" width="90" height="30" as="geometry" />
        </mxCell>
        <mxCell id="niGjmo_E2RT3U3L-TL8F-36" value="&lt;h1&gt;&lt;br&gt;&lt;/h1&gt;" style="text;html=1;strokeColor=#FF8000;fillColor=default;spacing=5;spacingTop=-20;whiteSpace=wrap;overflow=hidden;rounded=0;dashed=1;" vertex="1" parent="1">
          <mxGeometry x="320" y="680" width="290" height="260" as="geometry" />
        </mxCell>
        <mxCell id="niGjmo_E2RT3U3L-TL8F-1" value="Frontend Server" style="shape=umlLifeline;perimeter=lifelinePerimeter;whiteSpace=wrap;html=1;container=1;collapsible=0;recursiveResize=0;outlineConnect=0;" vertex="1" parent="1">
          <mxGeometry x="540" y="23" width="100" height="1027" as="geometry" />
        </mxCell>
        <mxCell id="niGjmo_E2RT3U3L-TL8F-19" value="fetch(GET, &#39;/dashboard&#39;, authkey)" style="html=1;verticalAlign=bottom;endArrow=block;rounded=0;" edge="1" parent="niGjmo_E2RT3U3L-TL8F-1">
          <mxGeometry width="80" relative="1" as="geometry">
            <mxPoint x="50.5" y="498" as="sourcePoint" />
            <mxPoint x="300.5" y="498" as="targetPoint" />
          </mxGeometry>
        </mxCell>
        <mxCell id="niGjmo_E2RT3U3L-TL8F-20" value="dashboard info" style="html=1;verticalAlign=bottom;endArrow=open;dashed=1;endSize=8;rounded=0;" edge="1" parent="niGjmo_E2RT3U3L-TL8F-1">
          <mxGeometry relative="1" as="geometry">
            <mxPoint x="300" y="529" as="sourcePoint" />
            <mxPoint x="50" y="529" as="targetPoint" />
          </mxGeometry>
        </mxCell>
        <mxCell id="niGjmo_E2RT3U3L-TL8F-23" value="dashboard info" style="html=1;verticalAlign=bottom;endArrow=open;dashed=1;endSize=8;rounded=0;" edge="1" parent="niGjmo_E2RT3U3L-TL8F-1">
          <mxGeometry relative="1" as="geometry">
            <mxPoint x="50" y="550" as="sourcePoint" />
            <mxPoint x="-200" y="550" as="targetPoint" />
          </mxGeometry>
        </mxCell>
        <mxCell id="niGjmo_E2RT3U3L-TL8F-27" value="link an article" style="html=1;verticalAlign=bottom;endArrow=block;rounded=0;" edge="1" parent="niGjmo_E2RT3U3L-TL8F-1">
          <mxGeometry width="80" relative="1" as="geometry">
            <mxPoint x="-200" y="706" as="sourcePoint" />
            <mxPoint x="50" y="706" as="targetPoint" />
          </mxGeometry>
        </mxCell>
        <mxCell id="niGjmo_E2RT3U3L-TL8F-30" value="" style="html=1;points=[];perimeter=orthogonalPerimeter;" vertex="1" parent="niGjmo_E2RT3U3L-TL8F-1">
          <mxGeometry x="45" y="824" width="10" height="40" as="geometry" />
        </mxCell>
        <mxCell id="niGjmo_E2RT3U3L-TL8F-31" value="render an article" style="edgeStyle=orthogonalEdgeStyle;html=1;align=left;spacingLeft=2;endArrow=block;rounded=0;entryX=1;entryY=0;" edge="1" target="niGjmo_E2RT3U3L-TL8F-30" parent="niGjmo_E2RT3U3L-TL8F-1">
          <mxGeometry relative="1" as="geometry">
            <mxPoint x="50" y="804" as="sourcePoint" />
            <Array as="points">
              <mxPoint x="80" y="804" />
            </Array>
          </mxGeometry>
        </mxCell>
        <mxCell id="niGjmo_E2RT3U3L-TL8F-32" value="display" style="html=1;verticalAlign=bottom;endArrow=open;dashed=1;endSize=8;rounded=0;" edge="1" parent="niGjmo_E2RT3U3L-TL8F-1">
          <mxGeometry relative="1" as="geometry">
            <mxPoint x="50" y="887" as="sourcePoint" />
            <mxPoint x="-200" y="887" as="targetPoint" />
          </mxGeometry>
        </mxCell>
        <mxCell id="niGjmo_E2RT3U3L-TL8F-2" value="Backend Server" style="shape=umlLifeline;perimeter=lifelinePerimeter;whiteSpace=wrap;html=1;container=1;collapsible=0;recursiveResize=0;outlineConnect=0;" vertex="1" parent="1">
          <mxGeometry x="790" y="23" width="100" height="1057" as="geometry" />
        </mxCell>
        <mxCell id="niGjmo_E2RT3U3L-TL8F-28" value="fetch(GET, &#39;/articles&#39;, authkey)" style="html=1;verticalAlign=bottom;endArrow=block;rounded=0;" edge="1" parent="niGjmo_E2RT3U3L-TL8F-2">
          <mxGeometry width="80" relative="1" as="geometry">
            <mxPoint x="-199.5" y="737" as="sourcePoint" />
            <mxPoint x="50.5" y="737" as="targetPoint" />
          </mxGeometry>
        </mxCell>
        <mxCell id="niGjmo_E2RT3U3L-TL8F-29" value="article info" style="html=1;verticalAlign=bottom;endArrow=open;dashed=1;endSize=8;rounded=0;" edge="1" parent="niGjmo_E2RT3U3L-TL8F-2">
          <mxGeometry relative="1" as="geometry">
            <mxPoint x="50" y="767.9999999999998" as="sourcePoint" />
            <mxPoint x="-200" y="767.9999999999998" as="targetPoint" />
          </mxGeometry>
        </mxCell>
        <mxCell id="niGjmo_E2RT3U3L-TL8F-3" value="WebBrowser" style="shape=umlLifeline;perimeter=lifelinePerimeter;whiteSpace=wrap;html=1;container=1;collapsible=0;recursiveResize=0;outlineConnect=0;" vertex="1" parent="1">
          <mxGeometry x="290" y="23" width="100" height="1017" as="geometry" />
        </mxCell>
        <mxCell id="niGjmo_E2RT3U3L-TL8F-13" value="" style="html=1;points=[];perimeter=orthogonalPerimeter;" vertex="1" parent="niGjmo_E2RT3U3L-TL8F-3">
          <mxGeometry x="45" y="247" width="10" height="40" as="geometry" />
        </mxCell>
        <mxCell id="niGjmo_E2RT3U3L-TL8F-14" value="localstorage.set(authkey, user info)" style="edgeStyle=orthogonalEdgeStyle;html=1;align=left;spacingLeft=2;endArrow=block;rounded=0;entryX=1;entryY=0;" edge="1" target="niGjmo_E2RT3U3L-TL8F-13" parent="niGjmo_E2RT3U3L-TL8F-3">
          <mxGeometry relative="1" as="geometry">
            <mxPoint x="50" y="227" as="sourcePoint" />
            <Array as="points">
              <mxPoint x="80" y="227" />
            </Array>
          </mxGeometry>
        </mxCell>
        <mxCell id="niGjmo_E2RT3U3L-TL8F-15" value="" style="html=1;points=[];perimeter=orthogonalPerimeter;" vertex="1" parent="niGjmo_E2RT3U3L-TL8F-3">
          <mxGeometry x="45" y="327" width="10" height="40" as="geometry" />
        </mxCell>
        <mxCell id="niGjmo_E2RT3U3L-TL8F-16" value="document.cookie = authkey" style="edgeStyle=orthogonalEdgeStyle;html=1;align=left;spacingLeft=2;endArrow=block;rounded=0;entryX=1;entryY=0;" edge="1" target="niGjmo_E2RT3U3L-TL8F-15" parent="niGjmo_E2RT3U3L-TL8F-3">
          <mxGeometry relative="1" as="geometry">
            <mxPoint x="50" y="307" as="sourcePoint" />
            <Array as="points">
              <mxPoint x="80" y="307" />
            </Array>
          </mxGeometry>
        </mxCell>
        <mxCell id="niGjmo_E2RT3U3L-TL8F-24" value="" style="html=1;points=[];perimeter=orthogonalPerimeter;" vertex="1" parent="niGjmo_E2RT3U3L-TL8F-3">
          <mxGeometry x="45" y="600" width="10" height="40" as="geometry" />
        </mxCell>
        <mxCell id="niGjmo_E2RT3U3L-TL8F-25" value="display(info)" style="edgeStyle=orthogonalEdgeStyle;html=1;align=left;spacingLeft=2;endArrow=block;rounded=0;entryX=1;entryY=0;" edge="1" target="niGjmo_E2RT3U3L-TL8F-24" parent="niGjmo_E2RT3U3L-TL8F-3">
          <mxGeometry relative="1" as="geometry">
            <mxPoint x="50" y="580" as="sourcePoint" />
            <Array as="points">
              <mxPoint x="80" y="580" />
            </Array>
          </mxGeometry>
        </mxCell>
        <mxCell id="niGjmo_E2RT3U3L-TL8F-4" value="click login button" style="html=1;verticalAlign=bottom;startArrow=circle;startFill=1;endArrow=open;startSize=6;endSize=8;rounded=0;" edge="1" parent="1">
          <mxGeometry width="80" relative="1" as="geometry">
            <mxPoint x="140" y="103" as="sourcePoint" />
            <mxPoint x="339.5" y="103" as="targetPoint" />
          </mxGeometry>
        </mxCell>
        <mxCell id="niGjmo_E2RT3U3L-TL8F-7" value="fetch(&#39;/api/login&#39;)" style="html=1;verticalAlign=bottom;endArrow=block;rounded=0;" edge="1" parent="1" target="niGjmo_E2RT3U3L-TL8F-1">
          <mxGeometry width="80" relative="1" as="geometry">
            <mxPoint x="339.5" y="131" as="sourcePoint" />
            <mxPoint x="589.5" y="131" as="targetPoint" />
          </mxGeometry>
        </mxCell>
        <mxCell id="niGjmo_E2RT3U3L-TL8F-8" value="fetch(POST, &#39;/auth&#39;)" style="html=1;verticalAlign=bottom;endArrow=block;rounded=0;" edge="1" parent="1">
          <mxGeometry width="80" relative="1" as="geometry">
            <mxPoint x="590" y="153" as="sourcePoint" />
            <mxPoint x="840" y="153" as="targetPoint" />
          </mxGeometry>
        </mxCell>
        <mxCell id="niGjmo_E2RT3U3L-TL8F-9" value="set-cookie:authkey&lt;br&gt;user info" style="html=1;verticalAlign=bottom;endArrow=open;dashed=1;endSize=8;rounded=0;" edge="1" parent="1">
          <mxGeometry relative="1" as="geometry">
            <mxPoint x="839.5" y="197" as="sourcePoint" />
            <mxPoint x="589.5" y="197" as="targetPoint" />
          </mxGeometry>
        </mxCell>
        <mxCell id="niGjmo_E2RT3U3L-TL8F-12" value="set-cookie:authkey&lt;br&gt;user info" style="html=1;verticalAlign=bottom;endArrow=open;dashed=1;endSize=8;rounded=0;" edge="1" parent="1">
          <mxGeometry relative="1" as="geometry">
            <mxPoint x="590" y="222" as="sourcePoint" />
            <mxPoint x="340" y="222" as="targetPoint" />
          </mxGeometry>
        </mxCell>
        <mxCell id="niGjmo_E2RT3U3L-TL8F-17" value="click csr page(dashboard)" style="html=1;verticalAlign=bottom;startArrow=circle;startFill=1;endArrow=open;startSize=6;endSize=8;rounded=0;" edge="1" parent="1">
          <mxGeometry width="80" relative="1" as="geometry">
            <mxPoint x="140" y="460" as="sourcePoint" />
            <mxPoint x="339.5" y="460" as="targetPoint" />
          </mxGeometry>
        </mxCell>
        <mxCell id="niGjmo_E2RT3U3L-TL8F-18" value="fetch(&#39;/dashboard&#39;, authkey)" style="html=1;verticalAlign=bottom;endArrow=block;rounded=0;" edge="1" parent="1">
          <mxGeometry width="80" relative="1" as="geometry">
            <mxPoint x="340" y="493" as="sourcePoint" />
            <mxPoint x="590" y="493" as="targetPoint" />
          </mxGeometry>
        </mxCell>
        <mxCell id="niGjmo_E2RT3U3L-TL8F-26" value="click ssr page(an article)" style="html=1;verticalAlign=bottom;startArrow=circle;startFill=1;endArrow=open;startSize=6;endSize=8;rounded=0;" edge="1" parent="1">
          <mxGeometry width="80" relative="1" as="geometry">
            <mxPoint x="140" y="702.9999999999998" as="sourcePoint" />
            <mxPoint x="339.5" y="702.9999999999998" as="targetPoint" />
          </mxGeometry>
        </mxCell>
        <mxCell id="niGjmo_E2RT3U3L-TL8F-37" value="withSession" style="text;html=1;align=center;verticalAlign=middle;resizable=0;points=[];autosize=1;strokeColor=none;fillColor=none;" vertex="1" parent="1">
          <mxGeometry x="610" y="680" width="90" height="30" as="geometry" />
        </mxCell>
      </root>
    </mxGraphModel>
  </diagram>
</mxfile>
